<svg width="48" height="28" viewBox="0 0 48 28" fill="none" xmlns="http://www.w3.org/2000/svg">
<path d="M27.0749 13.6554C27.0749 21.1968 21.0139 27.3103 13.5377 27.3103C6.06146 27.3103 0 21.1955 0 13.6554C0 6.11535 6.061 0 13.5377 0C21.0143 0 27.0749 6.11397 27.0749 13.6554Z" fill="white"/>
<path d="M41.9256 13.6554C41.9256 20.754 38.8951 26.5109 35.1568 26.5109C31.4184 26.5109 28.3879 20.754 28.3879 13.6554C28.3879 6.55677 31.418 0.799903 35.1563 0.799903C38.8946 0.799903 41.9256 6.55493 41.9256 13.6554Z" fill="white"/>
<path d="M48 13.6554C48 20.014 46.9343 25.1719 45.6193 25.1719C44.3044 25.1719 43.2392 20.0154 43.2392 13.6554C43.2392 7.29537 44.3049 2.13889 45.6193 2.13889C46.9338 2.13889 48 7.29491 48 13.6554Z" fill="white"/>
</svg>
