<svg width="105" height="20" viewBox="0 0 105 20" fill="none" xmlns="http://www.w3.org/2000/svg">
<path d="M7.99399 19.356V10.282L8.17599 11.556L0.817993 1.156H5.86199L11.452 9.164L9.18999 9.086L14.208 1.156H19.122L12.076 11.842L12.466 10.048V19.356H7.99399Z" fill="white"/>
<path d="M26.7731 19.616C25.4038 19.616 24.1384 19.382 22.9771 18.914C21.8331 18.446 20.8364 17.796 19.9871 16.964C19.1551 16.1147 18.5051 15.118 18.0371 13.974C17.5691 12.8127 17.3351 11.5473 17.3351 10.178C17.3351 8.826 17.5691 7.578 18.0371 6.434C18.5051 5.27267 19.1551 4.26734 19.9871 3.418C20.8364 2.56867 21.8331 1.91 22.9771 1.44201C24.1384 0.974005 25.4038 0.740004 26.7731 0.740004C28.1251 0.740004 29.3731 0.974005 30.5171 1.44201C31.6611 1.91 32.6491 2.56867 33.4811 3.418C34.3304 4.26734 34.9891 5.27267 35.4571 6.434C35.9251 7.578 36.1591 8.83467 36.1591 10.204C36.1591 11.556 35.9251 12.804 35.4571 13.948C34.9891 15.092 34.3304 16.0887 33.4811 16.938C32.6491 17.7873 31.6611 18.446 30.5171 18.914C29.3731 19.382 28.1251 19.616 26.7731 19.616ZM26.7731 15.43C27.4838 15.43 28.1338 15.3 28.7231 15.04C29.3124 14.78 29.8238 14.416 30.2571 13.948C30.7078 13.48 31.0544 12.9253 31.2971 12.284C31.5398 11.6427 31.6611 10.9493 31.6611 10.204C31.6611 9.44134 31.5398 8.73934 31.2971 8.098C31.0544 7.45667 30.7078 6.902 30.2571 6.434C29.8238 5.94867 29.3124 5.576 28.7231 5.316C28.1338 5.05601 27.4838 4.926 26.7731 4.926C26.0624 4.926 25.4038 5.05601 24.7971 5.316C24.2078 5.576 23.6878 5.94867 23.2371 6.434C22.8038 6.902 22.4658 7.45667 22.2231 8.098C21.9804 8.73934 21.8591 9.44134 21.8591 10.204C21.8591 11.2093 22.0671 12.1107 22.4831 12.908C22.9164 13.688 23.4971 14.3033 24.2251 14.754C24.9704 15.2047 25.8198 15.43 26.7731 15.43Z" fill="white"/>
<path d="M45.4039 19.512C43.8959 19.512 42.5526 19.2087 41.3739 18.602C40.2126 17.978 39.2939 17.1287 38.6179 16.054C37.9419 14.962 37.6039 13.7313 37.6039 12.362V1.13H42.0759V12.128C42.0759 12.7867 42.2233 13.376 42.5179 13.896C42.8126 14.416 43.2113 14.832 43.7139 15.144C44.2339 15.4387 44.7973 15.586 45.4039 15.586C46.0453 15.586 46.6259 15.4387 47.1459 15.144C47.6659 14.832 48.0733 14.416 48.3679 13.896C48.6799 13.376 48.8359 12.7867 48.8359 12.128V1.13H53.1519V12.362C53.1519 13.7313 52.8139 14.962 52.1379 16.054C51.4793 17.1287 50.5693 17.978 49.4079 18.602C48.2466 19.2087 46.9119 19.512 45.4039 19.512Z" fill="white"/>
<path d="M61.5475 19.616C59.7448 19.616 58.2195 19.304 56.9715 18.68C55.7408 18.0387 54.6835 17.1373 53.7995 15.976L56.5035 12.934C57.3528 14.0953 58.2108 14.8753 59.0775 15.274C59.9442 15.6727 60.8368 15.872 61.7555 15.872C62.2235 15.872 62.6395 15.8113 63.0035 15.69C63.3848 15.5687 63.6795 15.3953 63.8875 15.17C64.1128 14.9273 64.2255 14.6413 64.2255 14.312C64.2255 14.052 64.1562 13.818 64.0175 13.61C63.8962 13.402 63.7228 13.22 63.4975 13.064C63.2722 12.908 63.0122 12.7693 62.7175 12.648C62.4228 12.5093 62.0935 12.3967 61.7295 12.31C61.3828 12.2233 61.0275 12.1453 60.6635 12.076C59.6582 11.868 58.7828 11.5993 58.0375 11.27C57.3095 10.9233 56.6942 10.516 56.1915 10.048C55.7062 9.56267 55.3422 9.01667 55.0995 8.41C54.8568 7.786 54.7355 7.084 54.7355 6.304C54.7355 5.19467 55.0475 4.224 55.6715 3.392C56.3128 2.56 57.1535 1.91 58.1935 1.44201C59.2335 0.974005 60.3602 0.740004 61.5735 0.740004C63.3415 0.740004 64.7628 1.026 65.8375 1.598C66.9295 2.15267 67.7962 2.924 68.4375 3.912L65.6815 6.59C65.1442 5.89667 64.5288 5.37667 63.8355 5.03C63.1595 4.68334 62.4488 4.51 61.7035 4.51C61.2008 4.51 60.7588 4.57067 60.3775 4.692C59.9962 4.81334 59.7015 4.99534 59.4935 5.238C59.3028 5.46334 59.2075 5.74067 59.2075 6.07C59.2075 6.34734 59.2855 6.59867 59.4415 6.824C59.6148 7.032 59.8488 7.214 60.1435 7.37C60.4382 7.526 60.7762 7.66467 61.1575 7.786C61.5388 7.89 61.9375 7.97667 62.3535 8.046C63.3068 8.23667 64.1648 8.488 64.9275 8.8C65.7075 9.112 66.3748 9.502 66.9295 9.97C67.4842 10.4207 67.9088 10.958 68.2035 11.582C68.5155 12.1887 68.6715 12.8907 68.6715 13.688C68.6715 14.936 68.3682 16.002 67.7615 16.886C67.1548 17.77 66.3142 18.446 65.2395 18.914C64.1648 19.382 62.9342 19.616 61.5475 19.616Z" fill="white"/>
<path d="M81.4834 19.356V1.156H85.9294V19.356H81.4834ZM70.1734 19.356V1.156H74.6194V19.356H70.1734ZM71.9414 12.284V8.28H83.8234V12.284H71.9414Z" fill="white"/>
<path d="M86.3785 19.356L93.5805 1.156H97.3505L104.501 19.356H100.029L96.5705 10.126C96.4492 9.762 96.3105 9.372 96.1545 8.95601C96.0158 8.54 95.8772 8.10667 95.7385 7.656C95.5998 7.20534 95.4698 6.772 95.3485 6.356C95.2272 5.94 95.1232 5.55 95.0365 5.186L95.7905 5.16C95.6865 5.59334 95.5738 6.018 95.4525 6.434C95.3312 6.85 95.2012 7.266 95.0625 7.682C94.9238 8.098 94.7765 8.514 94.6205 8.93C94.4818 9.32867 94.3345 9.74467 94.1785 10.178L90.7465 19.356H86.3785ZM89.8105 15.872L91.2145 12.492H99.5345L100.939 15.872H89.8105Z" fill="white"/>
</svg>
